<svg width="1497" height="1497" viewBox="0 0 1497 1497" fill="none" xmlns="http://www.w3.org/2000/svg">
<rect width="1497" height="1497" rx="400" fill="#005DE4"/>
<path d="M882.125 481.25V1015.75C882.125 1042.18 889.962 1068.01 904.645 1089.99C919.328 1111.96 940.197 1129.09 964.614 1139.2C989.031 1149.32 1015.9 1151.96 1041.82 1146.81C1067.74 1141.65 1091.55 1128.93 1110.24 1110.24C1128.92 1091.55 1141.65 1067.74 1146.81 1041.82C1151.96 1015.9 1149.32 989.031 1139.2 964.614C1129.09 940.197 1111.96 919.328 1089.99 904.645C1068.01 889.962 1042.18 882.125 1015.75 882.125H481.25C454.821 882.125 428.986 889.962 407.012 904.645C385.037 919.328 367.91 940.197 357.797 964.614C347.683 989.031 345.037 1015.9 350.193 1041.82C355.349 1067.74 368.075 1091.55 386.763 1110.24C405.451 1128.93 429.26 1141.65 455.181 1146.81C481.102 1151.96 507.969 1149.32 532.386 1139.2C556.803 1129.09 577.672 1111.96 592.355 1089.99C607.038 1068.01 614.875 1042.18 614.875 1015.75V481.25C614.875 454.822 607.038 428.987 592.355 407.012C577.672 385.037 556.803 367.91 532.386 357.797C507.969 347.683 481.102 345.037 455.181 350.193C429.26 355.349 405.451 368.075 386.763 386.763C368.075 405.451 355.349 429.26 350.193 455.181C345.037 481.102 347.683 507.969 357.797 532.386C367.91 556.803 385.037 577.672 407.012 592.355C428.986 607.038 454.821 614.875 481.25 614.875H1015.75C1042.18 614.875 1068.01 607.038 1089.99 592.355C1111.96 577.672 1129.09 556.803 1139.2 532.386C1149.32 507.969 1151.96 481.102 1146.81 455.181C1141.65 429.26 1128.92 405.451 1110.24 386.763C1091.55 368.075 1067.74 355.349 1041.82 350.193C1015.9 345.037 989.031 347.683 964.614 357.797C940.197 367.91 919.328 385.037 904.645 407.012C889.962 428.987 882.125 454.822 882.125 481.25Z" stroke="white" stroke-width="60" stroke-linecap="round" stroke-linejoin="round"/>
</svg>
